<?xml version="1.0" encoding="UTF-8"?>
<svg version="1.1" baseProfile="tiny" xmlns="http://www.w3.org/2000/svg" xmlns:xlink="http://www.w3.org/1999/xlink" width="215" height="215">
<g fill="none" stroke="black" stroke-width="2">
 <polygon points="110,10 174,33 208,92 196,160 144,203 75,203 23,159 11,92 45,33"/>
<line x1="110" y1="110" x2="110" y2="10"/>
<line x1="110" y1="110" x2="196" y2="160"/>
<line x1="110" y1="110" x2="23" y2="159"/>
<line x1="174" y1="33" x2="75" y2="203"/>
<line x1="208" y1="92" x2="11" y2="92"/>
<line x1="144" y1="203" x2="45" y2="33"/>
</g>
<g fill="blue" stroke="black" stroke-width="2">
<circle cx="110" cy="110" r="6"/>
<circle cx="110" cy="10" r="6"/>
<circle cx="174" cy="33" r="6"/>
<circle cx="208" cy="92" r="6"/>
<circle cx="196" cy="160" r="6"/>
<circle cx="144" cy="203" r="6"/>
<circle cx="75" cy="203" r="6"/>
<circle cx="23" cy="159" r="6"/>
<circle cx="11" cy="92" r="6"/>
<circle cx="45" cy="33" r="6"/>
</g>
</svg>